<svg width="671" height="661"
     xmlns="http://www.w3.org/2000/svg" version="1.1" shape-rendering="crispEdges">
<style>path {fill-opacity:1; stroke:none;}</style>
<!-- <path d="M 0,504L 0,571L 3,571L 3,563L 6,563L 6,551L 8,551L 8,527L 6,527L 6,515L 3,515L 3,504Z" style="fill:rgb(255,255,255);"/>
<path d="M 78,657L 78,661L 95,661L 95,657L 92,657L 92,653L 89,653L 89,649L 87,649L 87,653L 84,653L 84,657Z" style="fill:rgb(255,255,255);"/>
<path d="M 601,657L 601,661L 651,661L 651,657L 649,657L 649,653L 643,653L 643,649L 637,649L 637,641L 632,641L 632,637L 626,637L 626,641L 623,641L 623,645L 618,645L 618,649L 609,649L 609,653L 607,653L 607,657Z" style="fill:rgb(255,255,255);"/>
<path d="M 640,0L 640,4L 643,4L 643,8L 649,8L 649,12L 651,12L 651,16L 657,16L 657,24L 660,24L 660,28L 668,28L 668,35L 671,35L 671,0Z" style="fill:rgb(255,255,255);"/> -->
<path d="M 0,0L 0,504L 3,504L 3,0Z" style="fill:rgb(224,176,132);"/>
<path d="M 0,571L 0,661L 78,661L 78,657L 3,657L 3,571Z" style="fill:rgb(224,176,132);"/>
<path d="M 3,508L 3,515L 6,515L 6,508Z" style="fill:rgb(224,176,132);"/>
<path d="M 3,563L 3,571L 6,571L 6,563Z" style="fill:rgb(224,176,132);"/>
<path d="M 8,519L 6,519L 6,527L 8,527Z" style="fill:rgb(224,176,132);"/>
<path d="M 8,551L 6,551L 6,559L 8,559Z" style="fill:rgb(224,176,132);"/>
<path d="M 8,531L 8,547L 11,547L 11,531Z" style="fill:rgb(224,176,132);"/>
<path d="M 81,653L 81,657L 84,657L 84,653Z" style="fill:rgb(224,176,132);"/>
<path d="M 84,649L 84,653L 87,653L 87,649Z" style="fill:rgb(224,176,132);"/>
<path d="M 89,649L 89,653L 92,653L 92,649Z" style="fill:rgb(224,176,132);"/>
<path d="M 92,653L 92,657L 95,657L 95,653Z" style="fill:rgb(224,176,132);"/>
<path d="M 95,657L 95,661L 601,661L 601,657Z" style="fill:rgb(224,176,132);"/>
<path d="M 604,653L 604,657L 607,657L 607,653Z" style="fill:rgb(224,176,132);"/>
<path d="M 612,645L 612,649L 618,649L 618,645Z" style="fill:rgb(224,176,132);"/>
<path d="M 623,637L 623,641L 626,641L 626,637Z" style="fill:rgb(224,176,132);"/>
<path d="M 632,637L 632,641L 635,641L 635,637Z" style="fill:rgb(224,176,132);"/>
<path d="M 637,0L 637,4L 640,4L 640,0Z" style="fill:rgb(224,176,132);"/>
<path d="M 637,641L 637,649L 643,649L 643,645L 640,645L 640,641Z" style="fill:rgb(224,176,132);"/>
<path d="M 640,4L 640,8L 643,8L 643,4Z" style="fill:rgb(224,176,132);"/>
<path d="M 643,649L 643,653L 646,653L 646,649Z" style="fill:rgb(224,176,132);"/>
<path d="M 646,8L 646,12L 649,12L 649,8Z" style="fill:rgb(224,176,132);"/>
<path d="M 651,16L 651,20L 654,20L 654,24L 657,24L 657,16Z" style="fill:rgb(224,176,132);"/>
<path d="M 651,657L 651,661L 668,661L 668,657Z" style="fill:rgb(224,176,132);"/>
<path d="M 657,24L 657,28L 660,28L 660,24Z" style="fill:rgb(224,176,132);"/>
<path d="M 663,28L 663,31L 665,31L 665,35L 668,35L 668,28Z" style="fill:rgb(224,176,132);"/>
<path d="M 668,35L 668,43L 671,43L 671,35Z" style="fill:rgb(224,176,132);"/>
<path d="M 668,657L 668,35L 665,35L 665,31L 663,31L 663,28L 657,28L 657,24L 654,24L 654,20L 651,20L 651,12L 646,12L 646,8L 640,8L 640,4L 6,4L 6,0L 3,0L 3,508L 6,508L 6,519L 8,519L 8,531L 11,531L 11,547L 8,547L 8,559L 6,559L 6,571L 3,571L 3,657L 81,657L 81,653L 84,653L 84,649L 92,649L 92,653L 95,653L 95,657L 604,657L 604,653L 609,653L 609,649L 612,649L 612,645L 623,645L 623,637L 635,637L 635,641L 640,641L 640,645L 643,645L 643,649L 646,649L 646,653L 649,653L 649,657Z" style="fill:rgb(251,235,194);"/>
<path d="M 668,657L 668,661L 671,661L 671,657Z" style="fill:rgb(251,235,194);"/>
<path d="M 6,0L 6,4L 637,4L 637,0Z" style="fill:rgb(255,247,211);"/>
<path d="M 668,43L 668,657L 671,657L 671,43Z" style="fill:rgb(255,247,211);"/>
</svg>